<?xml version="1.0" encoding="UTF-8" standalone="no"?>
<!DOCTYPE svg PUBLIC "-//W3C//DTD SVG 1.1//EN" "http://www.w3.org/Graphics/SVG/1.1/DTD/svg11.dtd">
<svg width="100%" height="100%" viewBox="0 0 1398 1220" version="1.1" xmlns="http://www.w3.org/2000/svg" xmlns:xlink="http://www.w3.org/1999/xlink" xml:space="preserve" xmlns:serif="http://www.serif.com/" style="fill-rule:evenodd;clip-rule:evenodd;stroke-linejoin:round;stroke-miterlimit:2;">
    <g transform="matrix(1,0,0,1,-2359.811401,-379.465885)">
        <g transform="matrix(5.120859,0,0,5.120859,-1567.887534,-2831.312776)">
            <g transform="matrix(15,0,0,15,-10523,-11488)">
                <circle cx="756" cy="821" r="2" style="fill:rgb(71,196,252);"/>
            </g>
            <g transform="matrix(1,0,0,1,-2,0)">
                <path d="M997.894,627C998.171,627 998.433,627.121 998.613,627.331C998.792,627.541 998.871,627.819 998.828,628.093C997.562,636.15 989.68,686.312 988.229,695.541C988.097,696.381 987.374,697 986.524,697.001C968.806,697.009 797.329,697.086 782.958,697.092C782.403,697.092 781.927,696.696 781.825,696.151C780.39,688.412 770.56,635.413 769.165,627.888C769.124,627.669 769.183,627.442 769.326,627.271C769.468,627.099 769.68,627 769.903,627C784.883,627 981.365,627 997.894,627Z" style="fill:rgb(71,196,252);"/>
            </g>
            <g transform="matrix(0.778261,0,0,0.957199,259.517391,197.835931)">
                <path d="M1000.148,627C1000.503,627 1000.841,627.126 1001.072,627.346C1001.303,627.566 1001.404,627.856 1001.348,628.142C999.76,636.334 990.113,686.101 988.295,695.477C988.125,696.354 987.196,697 986.104,697.001C966.406,697.01 799.539,697.085 783.274,697.092C782.542,697.092 781.919,696.657 781.81,696.068C780.323,688.049 770.567,635.451 769.167,627.902C769.125,627.676 769.207,627.446 769.39,627.273C769.573,627.1 769.84,627 770.122,627C786.691,627 981.561,627 1000.148,627Z" style="fill:rgb(71,196,252);"/>
            </g>
            <g transform="matrix(1.173913,0,0,1.042801,-133.73913,57.164069)">
                <path d="M998.917,627C999.151,627 999.374,627.115 999.527,627.315C999.68,627.515 999.748,627.78 999.714,628.041C998.664,635.947 991.955,686.466 990.743,695.589C990.635,696.4 990.017,697 989.288,697.001C972.454,697.008 793.338,697.086 778.692,697.092C778.145,697.092 777.679,696.643 777.596,696.034C776.479,687.876 769.257,635.1 768.262,627.83C768.233,627.622 768.287,627.411 768.408,627.251C768.53,627.092 768.707,627 768.894,627C782.694,627 983.51,627 998.917,627Z" style="fill:rgb(71,196,252);"/>
            </g>
        </g>
    </g>
</svg>
